<svg width="659" height="318" viewBox="0 0 659 318" fill="none" xmlns="http://www.w3.org/2000/svg">
<path fill-rule="evenodd" clip-rule="evenodd" d="M424.719 84.0664C423.32 85.7374 422.463 87.8735 422.407 90.2024L419.767 199.907C419.682 203.421 421.444 206.597 424.218 208.433L482.722 147.755L424.719 84.0664ZM457.703 78.636L497.011 77.9624L520.075 109.966L544.471 78.3206H618.062V77.6595C618.062 71.8889 613.162 67.3323 607.406 67.7508L457.703 78.636ZM618.062 81.8246L557.251 148.451L618.062 212.258V81.8246ZM618.062 224.845H549.004L519.275 185.557L493.033 220.186L606.58 238.082C612.609 239.033 618.062 234.372 618.062 228.269V224.845Z" fill="white"/>
<path d="M627.144 9.47131H637.474C639.493 9.47131 641.248 9.71625 642.738 10.2062C644.228 10.6961 645.376 11.4211 646.181 12.3813C646.999 13.3414 647.407 14.527 647.407 15.9378C647.407 17.1626 647.173 18.1864 646.704 19.0094C646.235 19.8324 645.58 20.5134 644.739 21.0523C643.91 21.5813 642.942 22.0173 641.837 22.3603L639.763 23.3155H631.092L631.056 19.3328H637.474C638.279 19.3328 638.946 19.2152 639.475 18.98C640.004 18.7449 640.4 18.4118 640.665 17.9807C640.941 17.5398 641.079 17.0156 641.079 16.4081C641.079 15.7909 640.941 15.2618 640.665 14.8209C640.388 14.38 639.98 14.042 639.439 13.8068C638.91 13.5717 638.255 13.4541 637.474 13.4541H633.472V30.8696H627.144V9.47131ZM641.512 30.8696L635.707 21.405L642.413 21.3756L648.291 30.6491V30.8696H641.512Z" fill="white"/>
<path d="M658.864 20.6966C658.864 32.1271 648.52 41.3933 635.759 41.3933C622.998 41.3933 612.654 32.1271 612.654 20.6966C612.654 9.2662 622.998 0 635.759 0C648.52 0 658.864 9.2662 658.864 20.6966ZM618.461 20.6966C618.461 29.2543 626.206 36.1916 635.759 36.1916C645.313 36.1916 653.057 29.2543 653.057 20.6966C653.057 12.139 645.313 5.20172 635.759 5.20172C626.206 5.20172 618.461 12.139 618.461 20.6966Z" fill="white"/>
<path d="M7.38264 189.328L80.5763 189.222C81.1388 193.441 83.7754 196.71 88.4862 199.03C93.1971 201.28 99.6305 202.405 107.787 202.405C115.943 202.405 122.025 201.491 126.032 199.663C130.11 197.765 132.149 194.952 132.149 191.226C132.149 187.921 130.392 185.285 126.876 183.316C123.36 181.277 117.947 179.8 110.634 178.886L65.4946 173.297C46.7919 171.047 32.6946 166.019 23.2026 158.215C13.7809 150.41 9.0701 139.969 9.0701 126.891C9.0701 109.454 16.2067 96.7281 30.4798 88.7126C44.8232 80.6972 67.6391 76.6895 98.9274 76.6895C131.411 76.6895 155.563 80.6972 171.383 88.7126C187.203 96.7281 195.746 109.208 197.011 126.153H126.771C125.997 121.231 123.044 117.54 117.911 115.079C112.779 112.548 105.572 111.282 96.2908 111.282C89.5409 111.282 84.2324 112.232 80.3653 114.13C76.4982 115.958 74.5647 118.454 74.5647 121.618C74.5647 124.571 76.0412 126.821 78.9943 128.368C82.0176 129.915 88.2402 131.356 97.6618 132.692L152.715 140.497C169.941 142.957 182.808 147.985 191.316 155.578C199.824 163.102 204.077 173.261 204.077 186.058C204.077 205.183 195.57 219.21 178.554 228.139C161.539 237.069 134.716 241.533 98.0837 241.533C68.975 241.533 46.6161 237.033 31.0071 228.034C15.4684 219.034 7.59358 206.132 7.38264 189.328Z" fill="white"/>
<path d="M219.881 233.165V82.2207H278.361V134.475H345.107V82.2207H403.587V233.165H345.107V172.134H278.361V233.165H219.881Z" fill="white"/>
<path d="M50.6484 307.729C47.8232 307.729 45.6606 306.926 44.1608 305.322C42.661 303.717 41.9111 301.45 41.9111 298.52V279.267C41.9111 276.337 42.661 274.07 44.1608 272.465C45.6606 270.861 47.8232 270.059 50.6484 270.059C53.4736 270.059 55.6361 270.861 57.136 272.465C58.6358 274.07 59.3857 276.337 59.3857 279.267V298.52C59.3857 301.45 58.6358 303.717 57.136 305.322C55.6361 306.926 53.4736 307.729 50.6484 307.729ZM50.6484 302.497C52.6365 302.497 53.6306 301.293 53.6306 298.887V278.901C53.6306 276.494 52.6365 275.291 50.6484 275.291C48.6603 275.291 47.6662 276.494 47.6662 278.901V298.887C47.6662 301.293 48.6603 302.497 50.6484 302.497ZM88.9223 270.582H97.398C100.258 270.582 102.403 271.349 103.833 272.884C105.263 274.419 105.978 276.668 105.978 279.633V283.243C105.978 286.208 105.263 288.458 103.833 289.992C102.403 291.527 100.258 292.294 97.398 292.294H94.6774V307.205H88.9223V270.582ZM97.398 287.062C98.3397 287.062 99.0373 286.801 99.4907 286.278C99.979 285.754 100.223 284.865 100.223 283.609V279.267C100.223 278.011 99.979 277.122 99.4907 276.599C99.0373 276.075 98.3397 275.814 97.398 275.814H94.6774V287.062H97.398ZM126.055 307.729C123.23 307.729 121.068 306.926 119.568 305.322C118.068 303.717 117.318 301.45 117.318 298.52V279.267C117.318 276.337 118.068 274.07 119.568 272.465C121.068 270.861 123.23 270.059 126.055 270.059C128.881 270.059 131.043 270.861 132.543 272.465C134.043 274.07 134.793 276.337 134.793 279.267V298.52C134.793 301.45 134.043 303.717 132.543 305.322C131.043 306.926 128.881 307.729 126.055 307.729ZM126.055 302.497C128.043 302.497 129.038 301.293 129.038 298.887V278.901C129.038 276.494 128.043 275.291 126.055 275.291C124.067 275.291 123.073 276.494 123.073 278.901V298.887C123.073 301.293 124.067 302.497 126.055 302.497ZM147.317 270.582H156.107C158.967 270.582 161.112 271.349 162.542 272.884C163.972 274.419 164.687 276.668 164.687 279.633V298.154C164.687 301.119 163.972 303.369 162.542 304.903C161.112 306.438 158.967 307.205 156.107 307.205H147.317V270.582ZM156.002 301.973C156.944 301.973 157.659 301.694 158.147 301.136C158.671 300.578 158.932 299.671 158.932 298.416V279.372C158.932 278.116 158.671 277.209 158.147 276.651C157.659 276.093 156.944 275.814 156.002 275.814H153.072V301.973H156.002ZM177.205 270.582H192.9V275.814H182.96V285.493H190.86V290.725H182.96V301.973H192.9V307.205H177.205V270.582ZM204.844 270.582H213.372C216.337 270.582 218.499 271.28 219.859 272.675C221.22 274.035 221.9 276.145 221.9 279.005V281.255C221.9 285.057 220.644 287.464 218.133 288.475V288.58C219.528 288.998 220.505 289.853 221.063 291.143C221.656 292.434 221.952 294.16 221.952 296.323V302.758C221.952 303.805 221.987 304.659 222.057 305.322C222.127 305.95 222.301 306.577 222.58 307.205H216.72C216.511 306.612 216.371 306.054 216.302 305.531C216.232 305.008 216.197 304.066 216.197 302.706V296.009C216.197 294.335 215.918 293.166 215.36 292.504C214.837 291.841 213.912 291.51 212.587 291.51H210.599V307.205H204.844V270.582ZM212.692 286.278C213.843 286.278 214.697 285.981 215.255 285.388C215.848 284.795 216.145 283.801 216.145 282.406V279.581C216.145 278.255 215.901 277.296 215.412 276.703C214.959 276.11 214.226 275.814 213.215 275.814H210.599V286.278H212.692ZM251.59 270.582H260.379C263.239 270.582 265.385 271.349 266.815 272.884C268.245 274.419 268.96 276.668 268.96 279.633V298.154C268.96 301.119 268.245 303.369 266.815 304.903C265.385 306.438 263.239 307.205 260.379 307.205H251.59V270.582ZM260.275 301.973C261.216 301.973 261.931 301.694 262.42 301.136C262.943 300.578 263.205 299.671 263.205 298.416V279.372C263.205 278.116 262.943 277.209 262.42 276.651C261.931 276.093 261.216 275.814 260.275 275.814H257.345V301.973H260.275ZM285.822 270.582H293.618L299.582 307.205H293.827L292.78 299.933V300.038H286.241L285.194 307.205H279.858L285.822 270.582ZM292.1 295.067L289.537 276.965H289.432L286.921 295.067H292.1ZM328.019 270.582H333.774V307.205H328.019V270.582ZM346.716 270.582H353.937L359.535 292.504H359.639V270.582H364.767V307.205H358.855L351.948 280.47H351.844V307.205H346.716V270.582ZM377.677 270.582H392.902V275.814H383.432V286.016H390.861V291.248H383.432V307.205H377.677V270.582ZM412.613 307.729C409.788 307.729 407.625 306.926 406.125 305.322C404.625 303.717 403.876 301.45 403.876 298.52V279.267C403.876 276.337 404.625 274.07 406.125 272.465C407.625 270.861 409.788 270.059 412.613 270.059C415.438 270.059 417.601 270.861 419.1 272.465C420.6 274.07 421.35 276.337 421.35 279.267V298.52C421.35 301.45 420.6 303.717 419.1 305.322C417.601 306.926 415.438 307.729 412.613 307.729ZM412.613 302.497C414.601 302.497 415.595 301.293 415.595 298.887V278.901C415.595 276.494 414.601 275.291 412.613 275.291C410.625 275.291 409.631 276.494 409.631 278.901V298.887C409.631 301.293 410.625 302.497 412.613 302.497ZM433.875 270.582H442.403C445.368 270.582 447.53 271.28 448.89 272.675C450.251 274.035 450.931 276.145 450.931 279.005V281.255C450.931 285.057 449.675 287.464 447.164 288.475V288.58C448.559 288.998 449.536 289.853 450.094 291.143C450.687 292.434 450.983 294.16 450.983 296.323V302.758C450.983 303.805 451.018 304.659 451.088 305.322C451.158 305.95 451.332 306.577 451.611 307.205H445.751C445.542 306.612 445.402 306.054 445.333 305.531C445.263 305.008 445.228 304.066 445.228 302.706V296.009C445.228 294.335 444.949 293.166 444.391 292.504C443.868 291.841 442.943 291.51 441.618 291.51H439.63V307.205H433.875V270.582ZM441.723 286.278C442.874 286.278 443.728 285.981 444.286 285.388C444.879 284.795 445.176 283.801 445.176 282.406V279.581C445.176 278.255 444.932 277.296 444.443 276.703C443.99 276.11 443.257 275.814 442.246 275.814H439.63V286.278H441.723ZM463.609 270.582H471.823L475.485 296.794H475.59L479.252 270.582H487.466V307.205H482.025V279.476H481.921L477.735 307.205H472.922L468.736 279.476H468.631V307.205H463.609V270.582ZM504.841 270.582H512.636L518.601 307.205H512.846L511.799 299.933V300.038H505.259L504.213 307.205H498.876L504.841 270.582ZM511.119 295.067L508.555 276.965H508.451L505.939 295.067H511.119ZM541.067 282.929V278.691C541.067 276.424 540.108 275.291 538.19 275.291C536.271 275.291 535.312 276.424 535.312 278.691V299.148C535.312 301.38 536.271 302.497 538.19 302.497C540.108 302.497 541.067 301.38 541.067 299.148V293.55H546.508V298.73C546.508 301.346 545.898 303.438 544.677 305.008C543.456 306.543 541.695 307.432 539.393 307.676V309.246C540.579 309.246 541.468 309.438 542.061 309.821C542.689 310.205 543.003 310.833 543.003 311.705C543.003 312.995 542.567 313.85 541.695 314.268C540.823 314.687 539.48 314.896 537.667 314.896C536.062 314.896 534.824 314.67 533.952 314.216C533.08 313.763 532.644 312.978 532.644 311.862V311.339H536.515V311.757C536.515 312.106 536.62 312.367 536.829 312.542C537.074 312.716 537.353 312.803 537.667 312.803C538.155 312.803 538.504 312.699 538.713 312.49C538.922 312.315 539.027 312.001 539.027 311.548C539.027 311.059 538.87 310.711 538.556 310.501C538.242 310.292 537.754 310.188 537.091 310.188H536.829V307.676C534.458 307.432 532.644 306.543 531.388 305.008C530.167 303.473 529.557 301.38 529.557 298.73V279.058C529.557 276.198 530.272 273.983 531.702 272.413C533.167 270.844 535.277 270.059 538.033 270.059C540.788 270.059 542.881 270.844 544.311 272.413C545.776 273.983 546.508 276.198 546.508 279.058V282.929H541.067ZM563.031 270.582H570.827L576.791 307.205H571.036L569.99 299.933V300.038H563.45L562.404 307.205H557.067L563.031 270.582ZM569.31 295.067L566.746 276.965H566.641L564.13 295.067H569.31ZM559.683 266.658C560.346 265.158 561.061 264.059 561.828 263.362C562.595 262.629 563.467 262.263 564.444 262.263C565.072 262.263 565.613 262.35 566.066 262.525C566.554 262.699 567.06 262.943 567.583 263.257C567.897 263.432 568.194 263.589 568.473 263.728C568.787 263.868 569.083 263.937 569.362 263.937C569.781 263.937 570.147 263.78 570.461 263.467C570.775 263.153 571.106 262.629 571.455 261.897L574.228 263.571C573.565 265.071 572.85 266.187 572.083 266.92C571.315 267.617 570.443 267.966 569.467 267.966C568.839 267.966 568.281 267.879 567.793 267.704C567.339 267.53 566.851 267.286 566.328 266.972C566.014 266.798 565.7 266.641 565.386 266.501C565.107 266.362 564.828 266.292 564.549 266.292C564.13 266.292 563.764 266.449 563.45 266.763C563.136 267.077 562.805 267.6 562.456 268.332L559.683 266.658ZM596.433 307.729C593.608 307.729 591.445 306.926 589.945 305.322C588.445 303.717 587.695 301.45 587.695 298.52V279.267C587.695 276.337 588.445 274.07 589.945 272.465C591.445 270.861 593.608 270.059 596.433 270.059C599.258 270.059 601.421 270.861 602.92 272.465C604.42 274.07 605.17 276.337 605.17 279.267V298.52C605.17 301.45 604.42 303.717 602.92 305.322C601.421 306.926 599.258 307.729 596.433 307.729ZM596.433 302.497C598.421 302.497 599.415 301.293 599.415 298.887V278.901C599.415 276.494 598.421 275.291 596.433 275.291C594.445 275.291 593.451 276.494 593.451 278.901V298.887C593.451 301.293 594.445 302.497 596.433 302.497Z" fill="white"/>
</svg>
